<?xml version="1.0" standalone="no"?><svg xmlns="http://www.w3.org/2000/svg" viewBox="0 0 1440 320"><path fill="#e6f2ff" fill-opacity="1" d="M0,64L10.9,85.3C21.8,107,44,149,65,138.7C87.3,128,109,64,131,42.7C152.7,21,175,43,196,48C218.2,53,240,43,262,53.3C283.6,64,305,96,327,144C349.1,192,371,256,393,245.3C414.5,235,436,149,458,144C480,139,502,213,524,213.3C545.5,213,567,139,589,112C610.9,85,633,107,655,106.7C676.4,107,698,85,720,80C741.8,75,764,85,785,106.7C807.3,128,829,160,851,149.3C872.7,139,895,85,916,90.7C938.2,96,960,160,982,202.7C1003.6,245,1025,267,1047,234.7C1069.1,203,1091,117,1113,90.7C1134.5,64,1156,96,1178,96C1200,96,1222,64,1244,69.3C1265.5,75,1287,117,1309,154.7C1330.9,192,1353,224,1375,240C1396.4,256,1418,256,1429,256L1440,256L1440,320L1429.1,320C1418.2,320,1396,320,1375,320C1352.7,320,1331,320,1309,320C1287.3,320,1265,320,1244,320C1221.8,320,1200,320,1178,320C1156.4,320,1135,320,1113,320C1090.9,320,1069,320,1047,320C1025.5,320,1004,320,982,320C960,320,938,320,916,320C894.5,320,873,320,851,320C829.1,320,807,320,785,320C763.6,320,742,320,720,320C698.2,320,676,320,655,320C632.7,320,611,320,589,320C567.3,320,545,320,524,320C501.8,320,480,320,458,320C436.4,320,415,320,393,320C370.9,320,349,320,327,320C305.5,320,284,320,262,320C240,320,218,320,196,320C174.5,320,153,320,131,320C109.1,320,87,320,65,320C43.6,320,22,320,11,320L0,320Z"></path></svg>