<?xml version="1.0" standalone="no"?><svg xmlns="http://www.w3.org/2000/svg" viewBox="0 0 1440 320"><path fill="#e6f2ff" fill-opacity="1" d="M0,64L10.9,85.3C21.8,107,44,149,65,138.7C87.3,128,109,64,131,42.7C152.7,21,175,43,196,48C218.2,53,240,43,262,53.3C283.6,64,305,96,327,144C349.1,192,371,256,393,245.3C414.5,235,436,149,458,144C480,139,502,213,524,213.3C545.5,213,567,139,589,112C610.9,85,633,107,655,106.7C676.4,107,698,85,720,80C741.8,75,764,85,785,106.7C807.3,128,829,160,851,149.3C872.7,139,895,85,916,90.7C938.2,96,960,160,982,202.7C1003.6,245,1025,267,1047,234.7C1069.1,203,1091,117,1113,90.7C1134.5,64,1156,96,1178,96C1200,96,1222,64,1244,69.3C1265.5,75,1287,117,1309,154.7C1330.9,192,1353,224,1375,240C1396.4,256,1418,256,1429,256L1440,256L1440,0L1429.1,0C1418.2,0,1396,0,1375,0C1352.7,0,1331,0,1309,0C1287.3,0,1265,0,1244,0C1221.8,0,1200,0,1178,0C1156.4,0,1135,0,1113,0C1090.9,0,1069,0,1047,0C1025.5,0,1004,0,982,0C960,0,938,0,916,0C894.5,0,873,0,851,0C829.1,0,807,0,785,0C763.6,0,742,0,720,0C698.2,0,676,0,655,0C632.7,0,611,0,589,0C567.3,0,545,0,524,0C501.8,0,480,0,458,0C436.4,0,415,0,393,0C370.9,0,349,0,327,0C305.5,0,284,0,262,0C240,0,218,0,196,0C174.5,0,153,0,131,0C109.1,0,87,0,65,0C43.6,0,22,0,11,0L0,0Z"></path></svg>